http://kickass.to/the-net-1995-dvdrip-hindi-dubbed-destiny-t5820209.html
Download The Net (1995) DVDRip Hindi Dubbed~{Destiny} Torrent - KickassTorrents
login / register
Community
blog
FAQ
Browse
latest
Search
Advanced search +1
0
report fake
The Net (1995) DVDRip Hindi Dubbed~{Destiny}
seeders: 0
leechers: 1
Download torrent
Added on Sep 10, 2011 in Movies	Torrent verified.	Downloaded 0 times.
Main
Technical
Trailer
Comments 2
Movie: The Net
IMDB link: 0113957
Detected quality: DVDRip
RottenTomatoes: 36% 44% Genres: Action, Drama, Thriller, Crime add The Net to bookmarks
Release date: 28 July 1995
Language:
Hindi
Cast: Sandra Bullock, Jeremy Northam, Diane Baker, Barbara Abedi, Andrew Amador, Vaughn Armstrong, Tannis Benedict, Gerald Berns, Lynn Blades, Melissa Bomes and others Available in versions: 1080p720pBDRipHDRiPDVDRip The Net (1995) DVDRip Hindi Dubbed~{Destiny} (Size: 455.12 MB)
The Net (1995) DVDRip x264 Hindi Dubbed~{Destiny}.mkv
455.12 MB
Description
Release Title: The Net (1995)Release Date: 28 July 1995 (USA)Film Length: 114 minutesTagline: Her driver\'s license. Her credit cards. Her bank accounts. Her identity. DELETED.Storyline: Angela Bennett\'s a software engineer type who works from home and has few friends outside of cyberspace. Taking her first vacation in years she becomes embroiled in a web (sic) of computer espionage.Sandra Bullock ... Angela BennettJeremy Northam ... Jack DevlinDennis Miller ... Dr. Alan ChampionDiane Baker ... Mrs. BennettWendy Gazelle ... Ruth MarxKen Howard ... Michael BergstromRay McKinnon ... Dale HessmanDaniel Schorr ... WNN AnchorL. Scott Caldwell ... Public DefenderRobert Gossett ... Ben PhillipsKristina Krofft ... Nurse #1Juan García ... Resort Desk ClerkTony Perez ... Mexican DoctorMargo Winkler ... Mrs. RainesGene Kirkwood ... Stan WhitemanGenre: Action | Crime | Drama | ThrillerFormat: MatroskaFile size: 454mbDuration: 1h 49mnMovie name: The Net (1995) DVDRip x264 Hindi Dubbed~{Destiny}Language: HindiRipper: Destinyhttp://www.imdb.com/title/tt0113957/VideoID : 1Format : RealVideo 2Codec ID : V_REAL/RV20Codec ID/Info : RealVideo 2.0 aka G2 and RealVideo G2+SVTDuration : 1h 49mnBit rate : 504 KbpsWidth : 480 pixelsHeight : 272 pixelsDisplay aspect ratio : 16:9Frame rate : 25.000 fpsBits/(Pixel*Frame) : 0.155Stream size : 396 MiB (87%)Title : DestinyAudioID : 2Format : AC-3Format/Info : Audio Coding 3Mode extension : CM (complete main)Muxing mode : Header strippingCodec ID : A_AC3Duration : 1h 49mnBit rate mode : ConstantBit rate : 64.0 KbpsChannel(s) : 2 channelsChannel positions : Front: L RSampling rate : 44.1 KHzBit depth : 16 bitsCompression mode : LossyDelay relative to video : 196msStream size : 50.2 MiB (11%)Title : DestinyLanguage : Hindi Related Torrents
torrent name
size
files
age
seed
leech
5	The Hitchhikers Guide To The Galaxy (2005) DVDRip x264 Hindi Dubbed~{Destiny}
in Movies 559.06 MB
3
2 years
0
5
1	The Net 2.0 (2006) DVDRip Hindi Dubbed~{Destiny}
in Movies 364.09 MB
1
2 years
1
2
2	Psycho III (1986) DVDRip x264 Hindi Dubbed~{Destiny}
in Movies 352.84 MB
1
2 years
0
2
2	My Little Eye (2002) DVDRip x264 Hindi Dubbed~{Destiny}
in Movies 521.82 MB
2
2 years
0
2
2	Psycho II (1983) DVDRip x264 Hindi Dubbed~{Destiny}
in Movies 441.27 MB
1
2 years
0
2
Sharing Widget
Download torrent
455.12 MB
seeders:0
leechers:1
The Net (1995) DVDRip Hindi Dubbed~{Destiny}
html bbcode Trackers
refresh
tracker name
Status
checked
seeders
leechers
downloads
udp://tracker.publicbt.com:80/announce
outdated
16 Apr 2014
-
-
-
udp://tracker.openbittorrent.com:80/announce
outdated
16 Apr 2014
-
-
-
http://tracker.openbittorrent.com/announce
outdated
28 Jun 2013
-
-
-
udp://tracker.1337x.org:80/announce
outdated
28 Jun 2013
-
-
-
http://pow7.com/announce
outdated
28 Jun 2013
-
-
-
http://tracker.token.ro/announce
outdated
28 Jun 2013
-
-
-
http://10.rarbg.com/announce
private
28 Jun 2013
-
-
-
http://fr33dom.h33t.com:3310/announce
deleted
28 Jun 2013
-
-
-
http://tracker.publicbt.com/announce
deleted
28 Jun 2013
-
-
-
http://9.rarbg.com:2710/announce
private
10 Sep 2011
-
-
-
http://tracker.novalayer.org:6969/announce
pending
28 Jun 2013
1
24
0
udp://tracker.novalayer.org:6969/announce
pending
28 Jun 2013
0
0
0
µTorrent compatible trackers list
udp://tracker.publicbt.com:80/announce
udp://tracker.openbittorrent.com:80/announce
http://tracker.openbittorrent.com/announce
udp://tracker.1337x.org:80/announce
http://pow7.com/announce
http://tracker.token.ro/announce
http://10.rarbg.com/announce
http://fr33dom.h33t.com:3310/announce
http://tracker.publicbt.com/announce
http://9.rarbg.com:2710/announce
http://tracker.novalayer.org:6969/announce
udp://tracker.novalayer.org:6969/announce
udp://tracker.openbittorrent.com/announce
Locations
name
ExtraTorrent
Torrent hash: 0a82ab5f4227abe25ce9a8451a335fefbb02aec8
All Comments
audio
vote 1 awful
2
3
4
5
6
7
8
9
10 best
1/10
video vote 1 awful
2
3
4
5
6
7
8
9
10 best
1/10
please, leave only comments related to that torrent
Not seeing the captcha?
Captcha *:
Post as a guest
or sign-in
0
anonymous
• 06 May 2012, 08:34 Show comment
pplzz seed........ reply
close
0
anonymous
• 06 May 2012, 08:34 Show comment
audio: 1video: 1 reply
close
0
anonymous
• 15 September 2011, 02:13 Show comment
somebody seed plsssssssssssss reply
close
Not seeing the captcha?
Captcha *:
reply
User Opinions
Jmd0071684 Advertising (remove)
Latest Forum Threads
**Adopt an uploader Program v7-- For all Users to Help**by i8awombat 13 sec. ago
The rarest book you own.by apollo60 18 sec. ago
politux torrentsby CoBane 2 min. ago
Post Threads that Need to be Moved or Trashed V2by bfab 3 min. ago
I'm a movie junkie and I'm running out of stuff to watch any SUGGESTIONS!by Genaro_flores 4 min. ago
All Karaoke Requests Hereby songbirdof12 5 min. ago
Latest News
May'14 Updatesby KickassTorrents 1 month ago
April'14 Updatesby KickassTorrents 2 months ago
March upd.1 - Uploader rules fix and Torrents Day 2014by KickassTorrents 3 months ago
Blogroll
Best Of The Bestby VikTSlick 5 hours ago
Question number (277)by man2014now 22 hours ago
Number 100by The.Phoenix yesterday
Religion, Humanity, And The Search For Meaningby VikTSlick yesterday
Outside my Window Part 3by johnno23 yesterday
Question number (276)by man2014now yesterday
Goodies
Firefox search plugin
uTorrent search template
Follow us on Twitter
Kickass wallpapers
Like us on Facebook
IRC official chat
Latest Searches
payday the heist
just now
capt america eng sub
just now
world fishing
just now
french sextape
just now
=winners and losers
just now
30 rock west coast live
just now
tonightsgirlfriend
just now
jessie parker
just now
a.band.called.death
just now
Milky Chance
just now
divinity
just now
Friends Links
Torrents.to
Torrent Downloads
TorrentReactor
Torrent Finder
Select Your Language
English
Afrikaans
Basque
Bengali
Bosnian
Chinese Simplified
Croatian
Czech
Danish
Dutch
Filipino
Finnish
French
Georgian
German
Greek
Hindi
Hungarian
Indonesian
Italian
Lithuanian
Malaysian
Norwegian
Pirate
Polish
Portuguese
Romanian
Russian
Serbian
Serbian-Cyrillic
Slovak
Spanish
Swedish
Telugu
Turkish
change language
rules
idea box
Achievements
trends
Latest Searches
torrent requests about
privacy
dmca
logos
contacts
api
chat
BitCoin: 19CWNopXCHSwWtWQ89NHC471LMn2Gy5j5G
Report a bug

